<?xml version="1.0" encoding="utf-8"?>
<!-- Generator: Adobe Illustrator 21.0.0, SVG Export Plug-In . SVG Version: 6.00 Build 0)  -->
<svg version="1.1" id="Capa_1" xmlns="http://www.w3.org/2000/svg" xmlns:xlink="http://www.w3.org/1999/xlink" x="0px" y="0px"
	 viewBox="0 0 206.1 57.3" style="enable-background:new 0 0 206.1 57.3;" xml:space="preserve">
<style type="text/css">
	.st0{fill:#222323;}
	.st1{fill:#DA4437;}
	.st2{clip-path:url(#SVGID_2_);fill:#DA4437;}
</style>
<path class="st0" d="M115.6,19h-9.5c-0.9,0-1.7,0.8-1.7,1.7v1.2h11.2c1.4,0,2.7,1,2.9,2.5c0.2,1.6-1.1,3-2.7,3h-11.3v2.9h11.3
	c3.3,0,5.9-2.8,5.6-6.2C121.1,21.2,118.5,19,115.6,19L115.6,19z"/>
<path class="st0" d="M127.4,20.7v1.1c0,0,0,0.1,0.1,0.1l18.7,0c0.4,0,0.8-0.4,0.7-0.8c-0.3-1.2-1.4-2-2.7-2h-15.1
	C128.1,19,127.4,19.8,127.4,20.7L127.4,20.7z"/>
<path class="st0" d="M127.4,30.2h18.2c0.8,0,1.4-0.6,1.4-1.4v0c0-0.8-0.6-1.4-1.4-1.4h-18.2V30.2z"/>
<path class="st0" d="M164.1,19h-9.5c-0.9,0-1.7,0.8-1.7,1.7v1.2h11.2c1.4,0,2.7,1,2.9,2.5c0.2,1.6-1.1,3-2.7,3h-11.3v2.9h11.3
	c3.3,0,5.9-2.8,5.6-6.2C169.6,21.2,167,19,164.1,19L164.1,19z"/>
<path class="st0" d="M107.3,33.1v2.6c0,0.9-0.4,1.7-1.1,2.2c-0.2,0.2-0.5,0.3-0.7,0.4c-0.2,0.1-0.3,0.1-0.5,0.2c-0.1,0-0.3,0-0.4,0
	c-0.1-0.1-0.2-0.2-0.2-0.3c0,0,0,0,0,0v-5.1H107.3z"/>
<path class="st0" d="M152.9,38.2c0,0.2,0.2,0.4,0.4,0.3c1.4-0.2,2.5-1.4,2.5-2.9v-2.6h-2.9V38.2z"/>
<path class="st0" d="M127.4,36.9L127.4,36.9c0,0.9,0.8,1.7,1.7,1.7h15c1.3,0,2.4-0.8,2.7-2c0.1-0.4-0.2-0.9-0.7-0.9l-18.8,0V36.9z"
	/>
<path class="st0" d="M68.8,19.4c0-0.2-0.2-0.4-0.4-0.3c-2.5,0.2-2.5,2-2.5,2.9l0,0.7v2.8l0,12.8c0,0.2,0.2,0.4,0.4,0.3
	c1.4-0.2,2.5-1.4,2.5-2.9V25.4c0-1.4,0-2.9,0-4.3L68.8,19.4z"/>
<path class="st0" d="M163.1,33.2l3.3,0l2.8,4.9c0.1,0.2-0.1,0.5-0.3,0.5c-1.8-0.2-3.4-1.2-4.3-2.8L163.1,33.2z"/>
<path class="st1" d="M88.7,24.7l2,2l7.1-7.1c0.2-0.2,0-0.6-0.3-0.6c-2.3,0.2-4.4,1.2-6.1,2.8L88.7,24.7z"/>
<path class="st0" d="M84.3,32.9l-2-2L75.1,38c-0.2,0.2,0,0.6,0.3,0.6c2.3-0.2,4.4-1.2,6.1-2.8L84.3,32.9z"/>
<path class="st0" d="M88.6,32.9l1.1-1.1L88.6,32.9z"/>
<path class="st0" d="M90.7,30.8l-1,1c0,0-1.1,1.1-1.1,1.1l3.2,3.2c1.5,1.5,3.6,2.4,5.7,2.5c0.3,0,0.5-0.4,0.3-0.6
	c-1.5-1.5-2.9-2.9-4.4-4.4C92.5,32.7,91.6,31.8,90.7,30.8z"/>
<path class="st0" d="M84.6,24.7l-3.2-3.2c-1.6-1.6-3.5-2.3-5.7-2.4c-0.3,0-0.5,0.4-0.3,0.6c1.8,1.8,7.2,7.2,7.2,7.2
	S84.6,24.7,84.6,24.7z"/>
<path class="st0" d="M192.4,21.7l-5.6,6.5l-5.6-6.5c-1.3-1.5-3.1-2.4-5-2.6c-0.3,0-0.5,0.3-0.3,0.6l9.2,10.6h3.5l9.1-10.6
	c0.2-0.2,0-0.6-0.3-0.6C195.5,19.3,193.7,20.2,192.4,21.7L192.4,21.7z"/>
<path class="st0" d="M185.3,38.4c0,0.1,0.1,0.2,0.2,0.2c1.5-0.1,2.7-1.3,2.7-2.9v-2.6h-2.9V38.4z"/>
<path class="st1" d="M28.6,33.5l-2.8-2.8c-0.2-0.2-0.2-0.5,0-0.7l2.8-2.8c0.2-0.2,0.5-0.2,0.7,0l2.8,2.8c0.2,0.2,0.2,0.5,0,0.7
	l-2.8,2.8C29.1,33.7,28.8,33.7,28.6,33.5z"/>
<path class="st0" d="M30.4,24.7c1.8,3.1,5.1,5,8.7,5l4.5,0c0.4,0,0.7-0.5,0.5-0.8l-5.3-9.1c-2.4-4.2-7-6.9-11.9-6.9l-2.4,0
	c-0.4,0-0.7,0.5-0.5,0.8L30.4,24.7z"/>
<path class="st0" d="M14.4,26.7c-2.5,4.2-2.5,9.5,0,13.7l1.2,2.1c0.2,0.4,0.8,0.4,1,0l6-10.3c1.8-3.1,1.8-6.9,0-10l-2.3-3.9
	c-0.2-0.4-0.8-0.4-1,0L14.4,26.7z"/>
<g>
	<defs>
		<path id="SVGID_1_" d="M32.6,34.9c-3.6,0-6.9,1.9-8.7,5l-2.3,3.9c-0.2,0.4,0.1,0.8,0.5,0.8l10.5,0c4.9,0,9.4-2.6,11.9-6.8l1.2-2.1
			c0.2-0.4-0.1-0.8-0.5-0.8L32.6,34.9L32.6,34.9z"/>
	</defs>
	<use xlink:href="#SVGID_1_"  style="overflow:visible;fill:#DA4437;"/>
	<clipPath id="SVGID_2_">
		<use xlink:href="#SVGID_1_"  style="overflow:visible;"/>
	</clipPath>
	
		<rect x="20.3" y="31.6" transform="matrix(0.9589 -0.2838 0.2838 0.9589 -9.9172 11.2105)" class="st2" width="26.9" height="16.5"/>
</g>
</svg>
