<?xml version="1.0" encoding="utf-8"?>
<!-- Generator: Adobe Illustrator 19.0.0, SVG Export Plug-In . SVG Version: 6.00 Build 0)  -->
<svg version="1.1" id="Capa_1" xmlns="http://www.w3.org/2000/svg" xmlns:xlink="http://www.w3.org/1999/xlink" x="0px" y="0px"
	 viewBox="629.8 384.9 410.3 70.7" style="enable-background:new 629.8 384.9 410.3 70.7;" xml:space="preserve">
<style type="text/css">
	.st0{fill:#212222;}
	.st1{fill:#C4483B;}
</style>
<g>
	<path id="XMLID_22_" class="st0" d="M858,398.5h-21c-2,0-3.8,1.7-3.8,3.8v2.6h24.9c3.2,0,6,2.3,6.4,5.4c0.4,3.6-2.5,6.7-6.1,6.7
		h-25.2v6.5h25.1c7.3,0,13.2-6.3,12.5-13.8C870.2,403.3,864.6,398.5,858,398.5L858,398.5z"/>
	<path id="XMLID_21_" class="st0" d="M884.2,402.2v2.5c0,0.1,0.1,0.1,0.1,0.1h43.3c0.1-3.6-2.7-6.4-6.3-6.4H888
		C885.9,398.5,884.2,400.2,884.2,402.2L884.2,402.2z"/>
	<path id="XMLID_20_" class="st0" d="M884.2,423.4h40.2c1.8,0,3.2-1.4,3.2-3.2l0,0c0-1.8-1.4-3.2-3.2-3.2h-40.2V423.4L884.2,423.4z"
		/>
	<path id="XMLID_19_" class="st0" d="M965.5,398.5h-21c-2,0-3.8,1.7-3.8,3.8v2.6h24.9c3.2,0,6,2.3,6.4,5.4c0.4,3.6-2.5,6.7-6.1,6.7
		h-25.2v6.5h25.1c7.3,0,13.2-6.3,12.5-13.8C977.7,403.3,972,398.5,965.5,398.5L965.5,398.5z"/>
	<path id="XMLID_18_" class="st0" d="M839.8,429.8v5.7c0,1.9-0.9,3.8-2.4,4.9c-0.5,0.4-1,0.7-1.6,0.9c-0.4,0.2-0.7,0.3-1.2,0.4
		c-0.3,0.1-0.6,0.1-0.9-0.1c-0.2-0.1-0.4-0.4-0.4-0.6V441v-11.2L839.8,429.8L839.8,429.8z"/>
	<path id="XMLID_17_" class="st0" d="M940.8,441.2c0,0.5,0.4,0.9,0.9,0.7c3.2-0.4,5.6-3.1,5.6-6.4v-5.7h-6.4L940.8,441.2
		L940.8,441.2z"/>
	<path id="XMLID_16_" class="st0" d="M884.2,438.1L884.2,438.1c0,2,1.7,3.8,3.8,3.8h33.3c3.6,0,6.4-2.9,6.4-6.4h-43.4V438.1
		L884.2,438.1z"/>
	<path id="XMLID_15_" class="st0" d="M754.3,399.3c0-0.5-0.4-0.7-0.9-0.7c-5.6,0.4-5.6,4.4-5.6,6.5v1.6v6.2v28.3
		c0,0.5,0.4,0.9,0.9,0.7c3.2-0.4,5.6-3.1,5.6-6.4v-22.8c0-3.2,0-6.4,0-9.6V399.3z"/>
	<path id="XMLID_14_" class="st0" d="M963.3,429.9h7.3l6.2,10.9c0.3,0.6-0.2,1.2-0.7,1.1c-3.9-0.5-7.5-2.8-9.6-6.3L963.3,429.9z"/>
	<path id="XMLID_13_" class="st1" d="M798.4,411.1l4.5,4.5l15.8-15.8c0.5-0.5,0.1-1.3-0.7-1.3c-5.1,0.5-9.8,2.7-13.4,6.3
		L798.4,411.1z"/>
	<path id="XMLID_12_" class="st0" d="M788.7,429.4l-4.5-4.5l-15.8,15.8c-0.5,0.5-0.1,1.3,0.7,1.3c5.1-0.5,9.8-2.7,13.4-6.3
		L788.7,429.4z"/>
	<path id="XMLID_11_" class="st0" d="M798.3,429.3l2.3-2.3L798.3,429.3z"/>
	<path id="XMLID_10_" class="st0" d="M802.8,424.7l-2.2,2.2l-2.3,2.3l7.2,7.2c3.4,3.4,8,5.2,12.6,5.5c0.7,0,1.1-0.7,0.6-1.3
		c-3.3-3.3-6.5-6.5-9.7-9.7C806.9,428.8,804.8,426.7,802.8,424.7z"/>
	<path id="XMLID_9_" class="st0" d="M789.3,411.2l-7.2-7.2c-3.5-3.5-7.8-5.1-12.5-5.4c-0.7-0.1-1.1,0.7-0.7,1.3
		c4,4,15.8,15.8,15.8,15.8C784.8,415.7,789.3,411.2,789.3,411.2z"/>
	<path id="XMLID_8_" class="st0" d="M1028.2,404.4l-12.5,14.5l-12.5-14.5c-2.8-3.3-6.7-5.3-11-5.8c-0.7-0.1-1.1,0.7-0.7,1.2
		l20.3,23.6h7.8l20.3-23.6c0.5-0.6,0-1.3-0.7-1.2C1035.1,399,1031,401.1,1028.2,404.4L1028.2,404.4z"/>
	<path id="XMLID_7_" class="st0" d="M1012.6,441.4c0,0.2,0.2,0.5,0.5,0.4c3.4-0.2,6-3,6-6.4v-5.7h-6.5L1012.6,441.4L1012.6,441.4z"
		/>
	<path id="XMLID_6_" class="st1" d="M665.2,430.7l-6.3-6.3c-0.5-0.5-0.5-1.1,0-1.5l6.3-6.3c0.5-0.5,1.1-0.5,1.5,0l6.3,6.3
		c0.5,0.5,0.5,1.1,0,1.5l-6.3,6.3C666.4,431,665.7,431,665.2,430.7z"/>
	<path id="XMLID_4_" class="st0" d="M669.2,411.1c3.9,6.9,11.3,11.1,19.3,11.1h10.1c0.9,0,1.6-1,1.1-1.9L688,400.1
		c-5.4-9.4-15.4-15.2-26.3-15.2h-5.4c-0.9,0-1.6,1-1.1,1.9L669.2,411.1z"/>
	<path id="XMLID_3_" class="st0" d="M633.9,415.5c-5.4,9.4-5.4,21,0,30.3l2.7,4.7c0.5,0.9,1.7,0.9,2.2,0l13.3-22.8
		c3.9-6.8,4-15.4,0-22.2l-5.1-8.7c-0.5-0.9-1.7-0.9-2.2,0L633.9,415.5z"/>
	<path id="XMLID_2_" class="st1" d="M674.2,433.9c-8,0-15.2,4.2-19.2,11l-5.1,8.7c-0.5,0.9,0.1,1.9,1.1,1.9l23.4,0.1
		c10.9,0,20.9-5.7,26.3-15.1l2.7-4.7c0.5-0.9-0.1-1.9-1.1-1.9L674.2,433.9L674.2,433.9z"/>
</g>
</svg>
